Coordinates
version=1
nRows=8
nColumns=40
inDegrees=yes

Units are S.I. units (second, meters, Newtons, ...)
If the header above contains a line with 'inDegrees', this indicates whether rotational values are in degrees (yes) or radians (no).

endheader
time	pelvis_tilt	pelvis_list	pelvis_rotation	pelvis_tx	pelvis_ty	pelvis_tz	hip_flexion_r	hip_adduction_r	hip_rotation_r	knee_angle_r	knee_angle_r_beta	ankle_angle_r	subtalar_angle_r	mtp_angle_r	hip_flexion_l	hip_adduction_l	hip_rotation_l	knee_angle_l	knee_angle_l_beta	ankle_angle_l	subtalar_angle_l	mtp_angle_l	lumbar_extension	lumbar_bending	lumbar_rotation	arm_flex_r	arm_add_r	arm_rot_r	elbow_flex_r	pro_sup_r	wrist_flex_r	wrist_dev_r	arm_flex_l	arm_add_l	arm_rot_l	elbow_flex_l	pro_sup_l	wrist_flex_l	wrist_dev_l
      1.83000000	     -3.93604757	      2.50468306	     -3.39258204	      0.23230826	      0.93278212	     -1.21926835	     12.42710712	     -8.93180130	    -15.48309770	     16.79832540	      0.29318609	      4.08485285	      2.14421404	      0.00000000	      9.95529493	     -3.61797010	    -25.27549392	     16.02396106	      0.27967088	      4.97709731	      6.58775107	      0.00000000	     -4.22234559	     -1.69359284	     -0.25486979	     44.99992296	    -14.99999999	     44.99992296	     75.00017585	     45.00000026	      0.00000000	      0.00000000	     44.99992296	    -14.99999999	     44.99992296	     75.00017585	     45.00000026	      0.00000000	      0.00000000
      1.83500000	     -4.04187793	      2.51167551	     -3.44533755	      0.23151674	      0.93259551	     -1.21921839	     12.63804255	     -8.87601764	    -15.17576259	     16.80796953	      0.29335441	      3.91648209	      1.71799260	      0.00000000	     10.12788578	     -3.57579791	    -24.99433713	     15.99231969	      0.27911863	      4.87648261	      6.05967776	      0.00000000	     -4.40110961	     -1.73689051	     -0.29646932	     44.99992299	    -14.99999999	     44.99992299	     75.00017585	     45.00000026	      0.00000000	      0.00000000	     44.99992299	    -14.99999999	     44.99992299	     75.00017585	     45.00000026	      0.00000000	      0.00000000
      1.84000000	     -4.18870250	      2.57149089	     -3.46453627	      0.23086707	      0.93221576	     -1.21924003	     12.96557337	     -8.95305568	    -15.09331833	     17.02526093	      0.29714686	      3.95617085	      1.63195729	      0.00000000	     10.41274333	     -3.55365414	    -24.96726269	     16.15813599	      0.28201267	      4.87370184	      5.94559971	      0.00000000	     -4.48975284	     -1.81666792	     -0.30524225	     44.99992302	    -14.99999999	     44.99992302	     75.00017585	     45.00000026	      0.00000000	      0.00000000	     44.99992302	    -14.99999999	     44.99992302	     75.00017585	     45.00000026	      0.00000000	      0.00000000
      1.84500000	     -4.33202890	      2.59974674	     -3.40389994	      0.23031391	      0.93175562	     -1.21948846	     13.31779758	     -9.08455676	    -15.31092026	     17.38246534	      0.30338125	      4.13639306	      1.90154139	      0.00000000	     10.75859930	     -3.61076524	    -25.07744232	     16.49696241	      0.28792631	      5.01902592	      6.12964432	      0.00000000	     -4.57190001	     -1.82849663	     -0.40651210	     44.99992308	    -14.99999999	     44.99992308	     75.00017585	     45.00000026	      0.00000000	      0.00000000	     44.99992308	    -14.99999999	     44.99992308	     75.00017585	     45.00000026	      0.00000000	      0.00000000
      1.85000000	     -4.40818825	      2.59231511	     -3.34565579	      0.22964305	      0.93152285	     -1.21973011	     13.50901806	     -9.10928895	    -15.32025332	     17.52159906	      0.30580959	      4.13424167	      1.82124177	      0.00000000	     10.96880687	     -3.61314660	    -24.91242312	     16.63747550	      0.29037873	      5.02699139	      5.87950680	      0.00000000	     -4.77343542	     -1.84085401	     -0.57975962	     44.99992312	    -14.99999999	     44.99992312	     75.00017585	     45.00000026	      0.00000000	      0.00000000	     44.99992312	    -14.99999999	     44.99992312	     75.00017585	     45.00000026	      0.00000000	      0.00000000
      1.85500000	     -4.59202800	      2.67802672	     -3.41991489	      0.22894413	      0.93101962	     -1.21968079	     13.92754609	     -9.21216194	    -15.17901471	     17.80390948	      0.31073684	      4.21780160	      1.77250986	      0.00000000	     11.30443173	     -3.59961224	    -25.02079563	     16.84195783	      0.29394762	      5.08184665	      5.88527354	      0.00000000	     -4.81628398	     -1.93788889	     -0.53838914	     44.99992317	    -14.99999999	     44.99992317	     75.00017585	     45.00000026	      0.00000000	      0.00000000	     44.99992317	    -14.99999999	     44.99992317	     75.00017585	     45.00000026	      0.00000000	      0.00000000
      1.86000000	     -4.69147871	      2.69883891	     -3.41143213	      0.22825386	      0.93078045	     -1.21973101	     14.15411085	     -9.23357159	    -15.10986239	     17.92382938	      0.31282984	      4.19660885	      1.63493582	      0.00000000	     11.49475571	     -3.55785288	    -24.78407067	     16.88167837	      0.29464087	      5.01277579	      5.50132209	      0.00000000	     -4.99759476	     -2.00281956	     -0.62808905	     44.99992321	    -14.99999999	     44.99992321	     75.00017585	     45.00000026	      0.00000000	      0.00000000	     44.99992321	    -14.99999999	     44.99992321	     75.00017585	     45.00000026	      0.00000000	      0.00000000
      1.86500000	     -4.83224910	      2.77279791	     -3.46862125	      0.22751488	      0.93035916	     -1.21966142	     14.50425978	     -9.30699017	    -14.94799471	     18.16160387	      0.31697978	      4.22826525	      1.46980777	      0.00000000	     11.78934690	     -3.54546096	    -24.83340947	     17.08044184	      0.29810995	      5.02316781	      5.41315903	      0.00000000	     -5.09872412	     -2.09113381	     -0.59370488	     44.99992325	    -14.99999999	     44.99992325	     75.00017585	     45.00000026	      0.00000000	      0.00000000	     44.99992325	    -14.99999999	     44.99992325	     75.00017585	     45.00000026	      0.00000000	      0.00000000
